<svg width="24" height="38" viewBox="0 0 24 38" fill="none" xmlns="http://www.w3.org/2000/svg">
<g clip-path="url(#clip0_87_117)">
<path d="M12.894 37.2002H10.122V33.3362C3.234 32.7482 0 29.0102 0 24.0962V23.8442H3.024V24.3902C3.024 28.4222 5.544 30.6062 12.138 30.6062C17.766 30.6062 20.328 29.0522 20.328 25.8602C20.328 22.7102 18.438 21.5762 14.322 20.7362L8.358 19.6022C3.78 18.7202 0.126 16.7882 0.126 12.1262C0.126 8.51416 3.024 4.90215 10.122 4.48215V0.660156H12.894V4.48215C19.824 4.98615 22.932 8.97615 22.932 13.7642V14.0162H19.908V13.5122C19.908 9.43815 17.388 7.25415 11.256 7.25415C5.67 7.25415 3.15 8.85015 3.15 11.9162C3.15 15.1082 4.998 16.0742 9.156 16.9562L15.078 18.1322C20.118 19.0982 23.352 21.2402 23.352 25.6082C23.352 29.5142 20.16 33.1682 12.894 33.4202V37.2002Z" fill="#D6AF60"/>
</g>
<defs>
<clipPath id="clip0_87_117">
<rect width="24" height="38" fill="white"/>
</clipPath>
</defs>
</svg>
