<svg width="308" height="176" viewBox="0 0 308 176" fill="none" xmlns="http://www.w3.org/2000/svg">
<g clip-path="url(#clip0_77_647)">
<path d="M43.7451 57.7596L66.1668 35.2646V146.93H43.7451V57.7596Z" fill="#490606"/>
<path d="M65.4476 146.93C64.0818 146.93 62.936 146.472 62.0193 145.555C61.0935 144.63 60.626 143.475 60.626 142.09V129.349C60.626 127.983 61.0935 126.833 62.0193 125.902C62.936 124.976 64.0818 124.509 65.4476 124.509H93.241V146.93H65.4476Z" fill="#490606"/>
<path d="M138.147 124.508L160.569 102.031V146.93H92.5336C91.1677 146.93 90.0219 146.471 89.1052 145.555C88.1794 144.629 87.7119 143.474 87.7119 142.09V129.348C87.7119 127.982 88.1794 126.832 89.1052 125.901C90.0219 124.975 91.1677 124.508 92.5336 124.508H138.147Z" fill="#490606"/>
<path d="M159.853 146.93C158.487 146.93 157.341 146.472 156.425 145.555C155.499 144.629 155.031 143.474 155.031 142.09V129.348C155.031 127.983 155.499 126.832 156.425 125.902C157.341 124.976 158.487 124.508 159.853 124.508H167.7C166.013 121.406 165.17 117.977 165.17 114.223C165.17 111.107 165.747 108.206 166.911 105.515C168.071 102.816 169.68 100.437 171.733 98.3834C173.795 96.3209 176.188 94.7076 178.901 93.5434C181.624 92.3838 184.539 91.8018 187.646 91.8018C190.763 91.8018 193.664 92.3838 196.355 93.5434C199.054 94.7076 201.433 96.3209 203.486 98.3834C205.549 100.437 207.162 102.816 208.326 105.515C209.486 108.206 210.068 111.107 210.068 114.223V146.93H159.853Z" fill="#490606"/>
<path d="M209.351 146.93C207.985 146.93 206.839 146.472 205.923 145.555C204.997 144.63 204.529 143.475 204.529 142.09V129.349C204.529 127.983 204.997 126.833 205.923 125.902C206.839 124.976 207.985 124.509 209.351 124.509H237.144V146.93H209.351Z" fill="#490606"/>
<path d="M241.754 56.4217L264.23 34V124.508H264.157C264.157 127.579 263.575 130.476 262.415 133.198C261.251 135.912 259.638 138.304 257.575 140.367C255.522 142.42 253.143 144.029 250.444 145.188C247.753 146.352 244.856 146.93 241.754 146.93H236.437C235.071 146.93 233.925 146.472 233.009 145.555C232.083 144.629 231.615 143.474 231.615 142.09V129.348C231.615 127.982 232.083 126.832 233.009 125.902C233.925 124.976 235.071 124.508 236.437 124.508H241.754V56.4217Z" fill="#490606"/>
<mask id="mask0_77_647" style="mask-type:luminance" maskUnits="userSpaceOnUse" x="172" y="70" width="21" height="22">
<path d="M172.187 70.5195H192.133V91.6395H172.187V70.5195Z" fill="white"/>
</mask>
<g mask="url(#mask0_77_647)">
<mask id="mask1_77_647" style="mask-type:luminance" maskUnits="userSpaceOnUse" x="172" y="71" width="20" height="20">
<path d="M182.022 71.125L191.817 80.9196L182.082 90.6546L172.287 80.86L182.022 71.125Z" fill="white"/>
</mask>
<g mask="url(#mask1_77_647)">
<path d="M182.022 71.125L191.83 80.9333L182.095 90.6729L172.287 80.86L182.022 71.125Z" fill="#BF6933"/>
</g>
</g>
<mask id="mask2_77_647" style="mask-type:luminance" maskUnits="userSpaceOnUse" x="187" y="70" width="22" height="22">
<path d="M187.44 70.5195H208.56V91.6395H187.44V70.5195Z" fill="white"/>
</mask>
<g mask="url(#mask2_77_647)">
<mask id="mask3_77_647" style="mask-type:luminance" maskUnits="userSpaceOnUse" x="188" y="71" width="20" height="20">
<path d="M197.831 71.125L207.625 80.9196L197.89 90.6546L188.096 80.86L197.831 71.125Z" fill="white"/>
</mask>
<g mask="url(#mask3_77_647)">
<path d="M197.831 71.125L207.639 80.9333L197.904 90.6729L188.096 80.86L197.831 71.125Z" fill="#BF6933"/>
</g>
</g>
<mask id="mask4_77_647" style="mask-type:luminance" maskUnits="userSpaceOnUse" x="105" y="151" width="22" height="22">
<path d="M105.307 151.48H126.427V172.6H105.307V151.48Z" fill="white"/>
</mask>
<g mask="url(#mask4_77_647)">
<mask id="mask5_77_647" style="mask-type:luminance" maskUnits="userSpaceOnUse" x="106" y="152" width="20" height="20">
<path d="M116.027 152.411L125.821 162.206L116.082 171.941L106.287 162.146L116.027 152.411Z" fill="white"/>
</mask>
<g mask="url(#mask5_77_647)">
<path d="M116.027 152.411L125.835 162.224L116.1 171.959L106.287 162.146L116.027 152.411Z" fill="#BF6933"/>
</g>
</g>
<mask id="mask6_77_647" style="mask-type:luminance" maskUnits="userSpaceOnUse" x="121" y="151" width="21" height="22">
<path d="M121.733 151.48H141.68V172.6H121.733V151.48Z" fill="white"/>
</mask>
<g mask="url(#mask6_77_647)">
<mask id="mask7_77_647" style="mask-type:luminance" maskUnits="userSpaceOnUse" x="122" y="152" width="20" height="20">
<path d="M131.834 152.411L141.629 162.206L131.889 171.941L122.095 162.146L131.834 152.411Z" fill="white"/>
</mask>
<g mask="url(#mask7_77_647)">
<path d="M131.834 152.411L141.643 162.224L131.908 171.959L122.095 162.146L131.834 152.411Z" fill="#BF6933"/>
</g>
</g>
<path d="M228.8 30.7961L235.29 19.5028L244.218 17.0828C243.769 15.4099 243.755 13.792 244.181 12.2245C244.599 10.6615 245.373 9.30029 246.51 8.13612C247.646 6.97654 249.035 6.17446 250.671 5.73446C252.299 5.29446 253.894 5.28987 255.456 5.71612C257.024 6.14696 258.394 6.92154 259.581 8.04446C260.764 9.17196 261.584 10.5699 262.038 12.2428L264.44 21.1161L228.8 30.7961Z" fill="#BF6933"/>
</g>
<defs>
<clipPath id="clip0_77_647">
<rect width="308" height="176" fill="white"/>
</clipPath>
</defs>
</svg>
